<svg width="11" height="21" viewBox="0 0 11 21" fill="#fefefe" xmlns="http://www.w3.org/2000/svg">
<path d="M8.71011 10.0058L0.218115 18.7328C0.148199 18.8031 0.0929247 18.8866 0.0554905 18.9784C0.0180563 19.0703 -0.000795208 19.1686 2.86102e-05 19.2678C0.000852428 19.3669 0.0213347 19.4649 0.0602894 19.5561C0.0992441 19.6473 0.155898 19.7299 0.226973 19.7991C0.298047 19.8682 0.382131 19.9226 0.47436 19.959C0.566588 19.9955 0.66513 20.0133 0.76428 20.0114C0.863431 20.0095 0.961222 19.988 1.052 19.948C1.14277 19.9081 1.22472 19.8506 1.29311 19.7788L10.2931 10.5288C10.4293 10.3888 10.5056 10.2011 10.5056 10.0058C10.5056 9.81042 10.4293 9.62278 10.2931 9.48277L1.29311 0.232767C1.22472 0.160954 1.14277 0.103419 1.052 0.063488C0.961222 0.0235571 0.863431 0.00202504 0.76428 0.000137329C0.66513 -0.00175038 0.566588 0.0160435 0.47436 0.0524902C0.382131 0.088937 0.298047 0.143312 0.226973 0.212469C0.155898 0.281627 0.0992441 0.364194 0.0602894 0.455391C0.0213347 0.546588 0.000852428 0.644605 2.86102e-05 0.743771C-0.000795208 0.842936 0.0180563 0.94128 0.0554905 1.03311C0.0929247 1.12494 0.148199 1.20844 0.218115 1.27877L8.71011 10.0058Z" fill="#fefefe"/>
</svg>
