<svg width="16" height="16" viewBox="0 0 16 16" fill="#efefef" xmlns="http://www.w3.org/2000/svg">
<path d="M1.616 16C1.15533 16 0.771 15.846 0.463 15.538C0.155 15.23 0.000666667 14.8453 0 14.384V11.27H1V14.385C1 14.539 1.064 14.6803 1.192 14.809C1.32 14.9377 1.461 15.0017 1.615 15.001H14.385C14.5383 15.001 14.6793 14.937 14.808 14.809C14.9367 14.681 15.0007 14.5397 15 14.385V1.616C15 1.462 14.936 1.32067 14.808 1.192C14.68 1.06333 14.5387 0.999333 14.384 1H1.616C1.462 1 1.32067 1.064 1.192 1.192C1.06333 1.32 0.999333 1.46133 1 1.616V4.73H0V1.616C0 1.15533 0.154333 0.771 0.463 0.463C0.771666 0.155 1.156 0.000666667 1.616 0H14.385C14.845 0 15.2293 0.154333 15.538 0.463C15.8467 0.771666 16.0007 1.156 16 1.616V14.385C16 14.845 15.846 15.2293 15.538 15.538C15.23 15.8467 14.8453 16.0007 14.384 16H1.616ZM6.846 11.923L6.139 11.203L8.842 8.5H0V7.5H8.842L6.14 4.796L6.847 4.077L10.77 8L6.846 11.923Z" fill="#efefef"/>
</svg>
