<svg width="11" height="20" viewBox="0 0 11 20" fill="#fefefe" xmlns="http://www.w3.org/2000/svg">
<path d="M2.29599 10L10.788 1.273C10.8579 1.20267 10.9132 1.11917 10.9506 1.02734C10.988 0.935511 11.0069 0.837167 11.0061 0.738002C11.0053 0.638837 10.9848 0.540819 10.9458 0.449622C10.9069 0.358425 10.8502 0.275859 10.7791 0.206701C10.7081 0.137544 10.624 0.0831684 10.5317 0.0467216C10.4395 0.0102748 10.341 -0.00751963 10.2418 -0.00563192C10.1427 -0.00374421 10.0449 0.0177882 9.95411 0.0577191C9.86333 0.09765 9.78138 0.155187 9.71299 0.226999L0.712989 9.477C0.576767 9.61701 0.500549 9.80465 0.500549 10C0.500549 10.1953 0.576767 10.383 0.712989 10.523L9.71299 19.773C9.78138 19.8448 9.86333 19.9023 9.95411 19.9423C10.0449 19.9822 10.1427 20.0037 10.2418 20.0056C10.341 20.0075 10.4395 19.9897 10.5317 19.9533C10.624 19.9168 10.7081 19.8625 10.7791 19.7933C10.8502 19.7241 10.9069 19.6416 10.9458 19.5504C10.9848 19.4592 11.0053 19.3612 11.0061 19.262C11.0069 19.1628 10.988 19.0645 10.9506 18.9727C10.9132 18.8808 10.8579 18.7973 10.788 18.727L2.29599 10Z" fill="#fefefe"/>
</svg>
