<svg width="20" height="22" viewBox="0 0 20 22" fill="none" xmlns="http://www.w3.org/2000/svg">
<path d="M10 0.25C12.487 0.25 14.773 0.652 16.466 1.329C17.31 1.666 18.043 2.087 18.578 2.593C19.114 3.1 19.5 3.744 19.5 4.5V17.487L19.474 17.5H19.5C19.5 18.256 19.114 18.9 18.578 19.407C18.043 19.913 17.31 20.334 16.466 20.671C14.773 21.348 12.487 21.75 10 21.75C7.513 21.75 5.226 21.348 3.534 20.671C2.69 20.334 1.957 19.913 1.422 19.407C0.886 18.9 0.5 18.256 0.5 17.5H0.526L0.5 17.487V4.5C0.5 3.744 0.886 3.1 1.422 2.593C1.957 2.087 2.69 1.666 3.534 1.329C5.226 0.652 7.513 0.25 10 0.25ZM2 13.371V17.487L1.987 17.5H2C2 17.711 2.103 17.987 2.453 18.317C2.804 18.649 3.351 18.983 4.091 19.279C5.566 19.868 7.655 20.25 10 20.25C12.345 20.25 14.434 19.869 15.909 19.279C16.648 18.983 17.197 18.649 17.547 18.317C17.896 17.987 18 17.71 18 17.5H18.013L18 17.487V13.371C17.5191 13.6923 17.0047 13.9606 16.466 14.171C14.773 14.848 12.487 15.25 10 15.25C7.513 15.25 5.226 14.848 3.534 14.171C2.99525 13.9606 2.48091 13.6923 2 13.371ZM18 11V6.871C17.5191 7.19234 17.0047 7.46057 16.466 7.671C14.773 8.348 12.487 8.75 10 8.75C7.513 8.75 5.226 8.348 3.534 7.671C2.99525 7.46057 2.48091 7.19234 2 6.871V11C2 11.21 2.104 11.487 2.453 11.817C2.803 12.149 3.352 12.483 4.091 12.778C5.566 13.368 7.655 13.75 10 13.75C12.345 13.75 14.434 13.368 15.909 12.778C16.649 12.483 17.196 12.149 17.547 11.818C17.897 11.488 18 11.211 18 11ZM2 4.5C2 4.711 2.103 4.987 2.453 5.317C2.804 5.649 3.351 5.983 4.091 6.279C5.566 6.868 7.655 7.25 10 7.25C12.345 7.25 14.434 6.869 15.909 6.279C16.648 5.983 17.197 5.649 17.547 5.317C17.896 4.987 18 4.71 18 4.5C18 4.289 17.897 4.013 17.547 3.683C17.196 3.351 16.649 3.017 15.909 2.721C14.434 2.132 12.345 1.75 10 1.75C7.655 1.75 5.566 2.131 4.091 2.721C3.352 3.017 2.803 3.351 2.453 3.683C2.104 4.013 2 4.29 2 4.5Z" fill="black"/>
</svg>
