<svg width="28" height="29" viewBox="0 0 28 29" fill="none" xmlns="http://www.w3.org/2000/svg">
<path d="M24 15.586V12C24 10.4348 23.6288 8.89196 22.917 7.498L28 2.414L26.586 1L0 27.586L1.414 29L7.414 23H9V24C9 25.3261 9.52678 26.5979 10.4645 27.5355C11.4021 28.4732 12.6739 29 14 29C15.3261 29 16.5979 28.4732 17.5355 27.5355C18.4732 26.5979 19 25.3261 19 24V23H26C26.2652 23 26.5196 22.8946 26.7071 22.7071C26.8946 22.5196 27 22.2652 27 22V19C26.9999 18.7348 26.8946 18.4805 26.707 18.293L24 15.586ZM17 24C17 24.7956 16.6839 25.5587 16.1213 26.1213C15.5587 26.6839 14.7956 27 14 27C13.2044 27 12.4413 26.6839 11.8787 26.1213C11.3161 25.5587 11 24.7956 11 24V23H17V24ZM25 21H9.414L21.412 9.002C21.7988 9.95428 21.9984 10.9722 22 12V16C22.0001 16.2652 22.1054 16.5195 22.293 16.707L25 19.414V21ZM5.707 16.707C5.89455 16.5195 5.99994 16.2652 6 16V12C6.00265 9.87908 6.84635 7.84579 8.34607 6.34607C9.84579 4.84635 11.8791 4.00265 14 4C15.8154 4.00125 17.5754 4.62533 18.986 5.768L20.412 4.342C18.8806 3.0494 16.9939 2.25039 15 2.05V0H13V2.05C10.5346 2.30093 8.24976 3.45712 6.58737 5.29498C4.92498 7.13285 4.0031 9.52184 4 12V15.586L1 18.586L2.414 20L5.707 16.707Z" fill="black"/>
</svg>
