<svg width="24" height="24" viewBox="0 0 24 24" fill="none" xmlns="http://www.w3.org/2000/svg">
<path d="M12 7.5C11.4091 7.5 10.8239 7.6164 10.2779 7.84254C9.73196 8.06869 9.23588 8.40016 8.81802 8.81802C8.40016 9.23588 8.06869 9.73196 7.84254 10.2779C7.6164 10.8239 7.5 11.4091 7.5 12C7.5 12.5909 7.6164 13.1761 7.84254 13.7221C8.06869 14.268 8.40016 14.7641 8.81802 15.182C9.23588 15.5998 9.73196 15.9313 10.2779 16.1575C10.8239 16.3836 11.4091 16.5 12 16.5C13.1935 16.5 14.3381 16.0259 15.182 15.182C16.0259 14.3381 16.5 13.1935 16.5 12C16.5 10.8065 16.0259 9.66193 15.182 8.81802C14.3381 7.97411 13.1935 7.5 12 7.5ZM9 12C9 11.606 9.0776 11.2159 9.22836 10.8519C9.37913 10.488 9.6001 10.1573 9.87868 9.87868C10.1573 9.6001 10.488 9.37913 10.8519 9.22836C11.2159 9.0776 11.606 9 12 9C12.394 9 12.7841 9.0776 13.1481 9.22836C13.512 9.37913 13.8427 9.6001 14.1213 9.87868C14.3999 10.1573 14.6209 10.488 14.7716 10.8519C14.9224 11.2159 15 11.606 15 12C15 12.7956 14.6839 13.5587 14.1213 14.1213C13.5587 14.6839 12.7956 15 12 15C11.2044 15 10.4413 14.6839 9.87868 14.1213C9.31607 13.5587 9 12.7956 9 12ZM19.71 20.395L17.982 19.636C17.7361 19.5291 17.4685 19.4813 17.2008 19.4962C16.9331 19.5111 16.6725 19.5885 16.44 19.722C15.973 19.992 15.675 20.469 15.616 21.006L15.408 22.886C15.3875 23.0751 15.3088 23.2531 15.183 23.3957C15.0571 23.5382 14.8901 23.6383 14.705 23.682C12.9258 24.105 11.0722 24.105 9.293 23.682C9.1081 23.6381 8.94135 23.538 8.81565 23.3954C8.68995 23.2529 8.61147 23.0749 8.591 22.886L8.383 21.009C8.35321 20.7448 8.26188 20.4913 8.11634 20.2688C7.9708 20.0464 7.77512 19.8611 7.545 19.728C7.31501 19.5955 7.0572 19.5188 6.79221 19.5038C6.52722 19.4889 6.26242 19.5362 6.019 19.642L4.291 20.401C4.11632 20.4777 3.9221 20.4983 3.73523 20.4598C3.54836 20.4212 3.37809 20.3256 3.248 20.186C2.00527 18.8524 1.0799 17.2554 0.541 15.514C0.483848 15.331 0.485317 15.1346 0.545201 14.9525C0.605085 14.7703 0.72039 14.6114 0.875 14.498L2.402 13.37C2.61697 13.2121 2.79176 13.0058 2.91223 12.7678C3.0327 12.5298 3.09547 12.2668 3.09547 12C3.09547 11.7332 3.0327 11.4702 2.91223 11.2322C2.79176 10.9942 2.61697 10.7879 2.402 10.63L0.875 9.505C0.72019 9.39151 0.604755 9.23244 0.544863 9.05008C0.48497 8.86771 0.483619 8.67117 0.541 8.488C1.0799 6.74769 2.00608 5.15208 3.25 3.821C3.38021 3.6816 3.55054 3.58613 3.7374 3.54779C3.92426 3.50945 4.11842 3.53014 4.293 3.607L6.013 4.364C6.25773 4.46933 6.52372 4.51591 6.78969 4.50001C7.05565 4.48411 7.3142 4.40618 7.54464 4.27244C7.77508 4.1387 7.97102 3.95288 8.11677 3.72984C8.26252 3.50681 8.35404 3.25275 8.384 2.988L8.594 1.11C8.61471 0.918796 8.69482 0.738891 8.82307 0.595574C8.95132 0.452258 9.12126 0.352736 9.309 0.311C10.189 0.115 11.0903 0.0113333 12.013 0C12.915 0.01 13.813 0.115 14.693 0.311C14.8809 0.352793 15.0509 0.452463 15.1792 0.595976C15.3075 0.739489 15.3875 0.919618 15.408 1.111L15.617 2.989C15.6619 3.40556 15.859 3.79089 16.1705 4.07105C16.482 4.3512 16.886 4.50645 17.305 4.507C17.538 4.507 17.769 4.458 17.985 4.363L19.705 3.606C19.8796 3.52914 20.0737 3.50845 20.2606 3.54679C20.4475 3.58513 20.6178 3.6806 20.748 3.82C21.9916 5.15118 22.9174 6.74678 23.456 8.487C23.5133 8.66994 23.5119 8.86619 23.4522 9.04834C23.3925 9.23049 23.2774 9.38945 23.123 9.503L21.598 10.63C21.163 10.95 20.9 11.459 20.9 12C20.9 12.54 21.163 13.049 21.599 13.37L23.125 14.496C23.441 14.73 23.575 15.138 23.459 15.513C22.9194 17.2526 21.9941 18.8479 20.752 20.18C20.6219 20.3196 20.4516 20.4152 20.2648 20.4538C20.0779 20.4923 19.8847 20.4717 19.71 20.395ZM14.262 20.197C14.5004 19.4496 15.0084 18.8176 15.687 18.424C16.1235 18.1725 16.6129 18.0269 17.1158 17.999C17.6188 17.971 18.1213 18.0614 18.583 18.263L19.927 18.853C20.7896 17.8529 21.4578 16.7005 21.897 15.455L20.708 14.578C20.3028 14.2812 19.9731 13.8921 19.7457 13.4443C19.5183 12.9964 19.3995 12.5013 19.399 11.999C19.399 10.972 19.896 10.019 20.706 9.423L20.708 9.422L21.895 8.545C21.4553 7.29978 20.7869 6.14767 19.924 5.148L18.591 5.734L18.589 5.735C18.183 5.915 17.746 6.007 17.303 6.007C16.5151 6.00626 15.7551 5.71485 15.1687 5.1886C14.5823 4.66234 14.2107 3.93824 14.125 3.155V3.153L13.962 1.693C13.3187 1.57331 12.6663 1.50874 12.012 1.5C11.3387 1.50933 10.6803 1.57367 10.037 1.693L9.874 3.154C9.81789 3.65243 9.64566 4.13076 9.37113 4.55054C9.0966 4.97033 8.72743 5.31986 8.29329 5.57107C7.85915 5.82228 7.37213 5.96815 6.87138 5.99697C6.37063 6.02579 5.87009 5.93675 5.41 5.737L4.074 5.149C3.21113 6.14867 2.54266 7.30078 2.103 8.546L3.293 9.423C3.69714 9.72035 4.02569 10.1086 4.25213 10.5563C4.47857 11.004 4.59656 11.4988 4.59656 12.0005C4.59656 12.5022 4.47857 12.997 4.25213 13.4447C4.02569 13.8924 3.69714 14.2806 3.293 14.578L2.103 15.456C2.54169 16.7033 3.20985 17.8575 4.073 18.859L5.418 18.269C5.8768 18.0687 6.37619 17.9788 6.87604 18.0066C7.37588 18.0344 7.86223 18.1791 8.296 18.429C8.72942 18.6794 9.09806 19.0279 9.37229 19.4467C9.64653 19.8654 9.81871 20.3426 9.875 20.84V20.845L10.037 22.309C11.334 22.564 12.667 22.564 13.964 22.309L14.126 20.842C14.15 20.6207 14.196 20.4057 14.264 20.197" fill="black"/>
</svg>
